<?xml version="1.0" encoding="UTF-8" standalone="no"?>
<!-- Created with Inkscape (http://www.inkscape.org/) -->

<svg
   width="172.70079mm"
   height="38.092159mm"
   viewBox="0 0 172.70079 38.092159"
   version="1.1"
   id="svg1"
   xml:space="preserve"
   xmlns="http://www.w3.org/2000/svg"
   xmlns:svg="http://www.w3.org/2000/svg"><defs
     id="defs1"><rect
       x="330.8479"
       y="501.52341"
       width="301.96436"
       height="128.66309"
       id="rect1" /><rect
       x="330.8479"
       y="501.52341"
       width="301.96436"
       height="128.66309"
       id="rect2" /></defs><g
     id="layer1"
     transform="translate(-18.199415,-132.8966)"><path
       style="fill:#008000;fill-opacity:1;stroke-width:1.23982"
       d="m 99.753962,170.58008 c -6.609413,-1.76582 -12.165802,-7.1103 -13.947271,-13.41534 -0.820494,-2.90392 -0.888668,-6.72524 -0.172709,-9.68105 0.612984,-2.53067 1.216549,-3.83311 2.929389,-6.32133 l 1.321106,-1.91914 1.106009,1.27194 c 0.608304,0.69957 1.74407,2.17963 2.523921,3.28904 0.779854,1.1094 1.680895,2.10251 2.002317,2.20689 0.32142,0.10447 1.119158,0.87134 1.772754,1.70435 1.05559,1.34534 1.16393,1.65913 0.969761,2.80893 -0.545682,3.23134 -0.420687,3.79464 1.460786,6.58356 0.979225,1.45153 1.881275,2.63914 2.004515,2.63914 0.1233,0 0.39008,-0.16153 0.59293,-0.35894 0.27011,-0.26285 -0.0236,-0.9494 -1.09734,-2.56458 -1.553945,-2.33771 -1.65971,-2.57774 -1.13578,-2.57774 0.18171,0 0.9673,0.94352 1.74577,2.09669 0.77846,1.15318 1.53229,2.09971 1.6752,2.10342 0.65761,0.017 0.57402,-1.09112 -0.16485,-2.18559 -0.44761,-0.66303 -1.07172,-1.59248 -1.38692,-2.06545 -0.37747,-0.5664 -0.45324,-0.93202 -0.22201,-1.0711 0.19796,-0.119 0.95937,0.71737 1.74573,1.91771 1.21086,1.84832 1.45746,2.06775 1.87128,1.66505 0.41381,-0.40272 0.39102,-0.58475 -0.17286,-1.38139 -1.7034,-2.40643 -2.16438,-3.34455 -1.64344,-3.34455 0.279,0 0.99953,0.80091 1.60119,1.77981 1.05597,1.71808 1.66791,2.14032 2.10487,1.45231 0.31207,-0.49143 -1.68674,-3.68869 -3.01624,-4.82468 -0.72885,-0.62276 -1.52752,-0.99627 -2.13034,-0.99627 -0.53041,0 -1.33729,-0.13798 -1.79309,-0.30663 -0.912723,-0.33769 -2.586516,-2.85603 -2.727204,-4.10325 -0.04914,-0.43588 -0.962352,-2.27928 -2.029305,-4.09648 -2.761097,-4.70258 -2.731552,-4.23973 -0.357103,-5.59401 4.097945,-2.33728 10.020362,-3.04422 14.770812,-1.76314 4.19319,1.13082 8.73297,4.27774 11.1047,7.69769 0.535,0.77142 0.97272,1.44791 0.97272,1.50331 0,0.0554 -0.378,0.0303 -0.84,-0.0556 -0.71066,-0.1322 -1.39921,0.38002 -4.47217,3.32693 -1.99771,1.91576 -3.67723,3.73577 -3.73226,4.04449 -0.0551,0.30871 -2.75861,2.91914 -6.00797,5.80097 -3.24935,2.88183 -5.81288,5.38933 -5.69671,5.57223 0.11865,0.18689 0.66737,0.2451 1.25253,0.13289 2.43617,-0.46716 3.22283,-0.53715 6.77249,-0.60263 3.19585,-0.0589 3.58046,-0.0139 2.66021,0.31099 -0.59168,0.20893 -2.14823,0.39096 -3.45903,0.40449 -2.7462,0.0283 -4.69976,0.71389 -6.55723,2.30101 -0.67315,0.57519 -1.17257,1.09576 -1.10979,1.15684 0.0627,0.061 0.86815,-0.16777 1.78977,-0.50856 1.42398,-0.52655 2.22321,-0.59151 5.32097,-0.43247 2.51212,0.12897 4.05246,0.06 4.95506,-0.22177 2.89554,-0.904 4.65486,-3.07504 5.03709,-6.2159 l 0.19911,-1.63599 -0.91168,0.58133 c -0.79963,0.50988 -1.20441,0.54131 -3.29334,0.25562 l -2.38166,-0.32571 -2.82646,1.83727 c -2.86643,1.86326 -4.71287,2.90852 -4.21641,2.38687 0.15,-0.15759 1.72119,-1.23307 3.49155,-2.38993 2.94277,-1.92304 3.22788,-2.20056 3.32459,-3.23604 0.1214,-1.29985 2.12259,-3.55963 3.15228,-3.55963 0.34603,0 1.93123,-1.06317 3.52267,-2.36257 1.59143,-1.29942 3.21809,-2.5838 3.6148,-2.85421 0.3967,-0.27041 0.85847,-0.8455 1.02612,-1.27797 0.2778,-0.71659 0.3599,-0.61414 0.92586,1.1553 0.95065,2.97214 0.8758,8.99054 -0.14767,11.87313 -1.97987,5.57628 -6.59605,10.08048 -12.29775,11.99945 -2.56715,0.864 -8.8001,1.07769 -11.374268,0.38995 z m 0.172186,-8.34229 c -0.629765,-1.46679 -1.627666,-2.40286 -3.335901,-3.12917 -0.734149,-0.31215 -1.520222,-0.78495 -1.746828,-1.05066 -0.226607,-0.26572 0.616571,-0.004 1.873727,0.57948 1.325201,0.61606 2.651601,1.51443 3.156383,2.13782 1.051671,1.2988 1.105311,0.88171 0.192071,-1.49364 -0.841235,-2.18807 -2.694982,-3.84151 -4.903343,-4.37354 -0.858023,-0.20669 -1.801712,-0.68007 -2.097086,-1.05195 -0.521932,-0.65711 -0.548564,-0.6294 -0.946454,0.98468 -0.371212,1.50585 -0.343857,1.79258 0.293188,3.07323 0.729719,1.46695 2.413685,2.60308 5.09208,3.4355 0.682867,0.21222 1.580688,0.79303 1.995163,1.29067 0.414486,0.49764 0.792972,0.87353 0.841102,0.83533 0.0481,-0.0381 -0.13822,-0.59519 -0.414102,-1.23775 z"
       id="path1" /><text
       xml:space="preserve"
       transform="matrix(0.28161191,0,0,0.34211637,-75.486047,-40.291893)"
       id="text1"
       style="font-weight:bold;font-size:96px;font-family:Garamond;-inkscape-font-specification:'Garamond Bold';white-space:pre;shape-inside:url(#rect1);fill:#008000"><tspan
         x="330.84766"
         y="581.97072"
         id="tspan3">Leafy</tspan></text><text
       xml:space="preserve"
       transform="matrix(0.31507799,0,0,0.3974083,22.721173,-70.806087)"
       id="text2"
       style="font-weight:bold;font-size:96px;font-family:Garamond;-inkscape-font-specification:'Garamond Bold';white-space:pre;shape-inside:url(#rect2);fill:#008000"><tspan
         x="330.84766"
         y="581.97072"
         id="tspan4">Bites</tspan></text></g></svg>
